<svg id="Layer_1" data-name="Layer 1" xmlns="http://www.w3.org/2000/svg" viewBox="0 45 255 100"><defs><style>.cls-1{fill:#062e73;}.cls-2{fill:#07b3cf;}.cls-3{fill:#8d39cf;}.cls-4{fill:#4a76d8;}.cls-5{fill:#08b3cf;}.cls-6{fill:#fff;}</style></defs><title>Artboard 1 copy 2</title><path class="cls-1" d="M191.32,60.77v.81q0,16.66,0,33.33a4,4,0,0,1-.1,1.15,2.39,2.39,0,0,1-2.6,1.73,2.45,2.45,0,0,1-2.16-2.2c0-.21,0-.43,0-.64q0-21.55,0-43.09c0-.17,0-.34,0-.51A2.36,2.36,0,0,1,188,49.14a2.52,2.52,0,0,1,2.7.67,4.11,4.11,0,0,1,.57.93l19.4,38.56.31.59a1.29,1.29,0,0,0,.37-.59l19-38.53c.09-.19.19-.39.3-.57a2.43,2.43,0,0,1,2.77-1.12,2.32,2.32,0,0,1,1.76,2.26c0,.17,0,.34,0,.51q0,21.55,0,43.09a4,4,0,0,1-.1,1.08,2.36,2.36,0,0,1-2.58,1.75,2.43,2.43,0,0,1-2.18-2.17c0-.26,0-.51,0-.77q0-16.92,0-33.84v-.76c-.28.16-.32.43-.43.64L217,87.26l-3.89,8a2.38,2.38,0,0,1-2.42,1.45,2.18,2.18,0,0,1-1.82-1,6.43,6.43,0,0,1-.37-.68l-16.76-33.5A2,2,0,0,0,191.32,60.77Z"/><path class="cls-1" d="M61.48,73.39q0-10.69,0-21.38c0-.21,0-.43,0-.64A2.4,2.4,0,0,1,63.75,49c.19,0,.39,0,.58,0H92.84a4.16,4.16,0,0,1,1.15.11,2.31,2.31,0,0,1,1.67,2.38,2.22,2.22,0,0,1-1.8,2.13,5.34,5.34,0,0,1-1.15.08H67.15c-.92,0-.79-.1-.79.78q0,7.87,0,15.73c0,.8-.08.72.72.72H85.51a4.34,4.34,0,0,1,1,.06,2.33,2.33,0,0,1,1.8,2.53,2.37,2.37,0,0,1-2.2,2.14c-.25,0-.51,0-.77,0H67.07c-.81,0-.71-.07-.71.73q0,8,0,16c0,.75-.11.72.73.72H92.71c.28,0,.56,0,.83,0a2.22,2.22,0,0,1,2.11,2.24,2.32,2.32,0,0,1-2.11,2.4c-.21,0-.43,0-.64,0H64.26a2.8,2.8,0,0,1-1.71-.43,2.43,2.43,0,0,1-1.06-1.89c0-.21,0-.43,0-.64Q61.48,84.11,61.48,73.39Z"/><path class="cls-1" d="M47.89,67.92c0,5,0,10.06,0,15.09A14.26,14.26,0,0,1,34.79,97.52,14.42,14.42,0,0,1,22.31,92.9a13.52,13.52,0,0,1-3.63-8.24,10,10,0,0,1-.07-1.58,2.35,2.35,0,0,1,2.2-2.24,2.4,2.4,0,0,1,2.59,1.72,4.45,4.45,0,0,1,.08,1,9.4,9.4,0,0,0,5,8.24A9.74,9.74,0,0,0,42.87,85,13.29,13.29,0,0,0,43,82.74q0-15.41,0-30.82a5.52,5.52,0,0,1,0-.94,2.41,2.41,0,0,1,2.51-2,2.3,2.3,0,0,1,2.3,2.19c0,.25,0,.5,0,.76Q47.89,59.93,47.89,67.92Z"/><path class="cls-2" d="M137.76,89.76c-.49-1.5-.82-3-1.25-4.55a7,7,0,0,1-.23-.89A1.54,1.54,0,0,0,135,82.88a2.94,2.94,0,0,1-1.89-3.63A3,3,0,0,1,136.55,77a3,3,0,0,1,2.57,3.13.72.72,0,0,0,.45.82c.69.36,1.37.74,2,1.13a.63.63,0,0,0,.82,0,2.72,2.72,0,0,1,2.2-.53.77.77,0,0,0,.87-.39c.85-1.24,1.73-2.46,2.6-3.69a2.92,2.92,0,0,1,1.45,1c-.84,1.22-1.67,2.44-2.53,3.65a.84.84,0,0,0-.09,1.05,3,3,0,0,1-.45,3.47,3.06,3.06,0,0,1-3.36.79,3,3,0,0,1-1.94-2.9.89.89,0,0,0-.59-1c-.61-.31-1.19-.67-1.79-1-.24-.13-.46-.43-.81-.15s-.17.54-.1.83l1.25,4.7c.12.45.24.91.35,1.36A2.11,2.11,0,0,1,137.76,89.76Z"/><path class="cls-3" d="M155.2,68.25a4,4,0,0,1-.49-1.88,3,3,0,0,1,3.07-2.95,3,3,0,0,1,3.05,2.95,3,3,0,0,1-3.75,3.09l-.48-.09A1.64,1.64,0,0,1,155.2,68.25Z"/><path class="cls-4" d="M149.54,78.47a5.79,5.79,0,0,1-1.45-1,3.84,3.84,0,0,1-.62-1.92,3,3,0,0,1,3.14-3.08,6.63,6.63,0,0,1,1.11.16,2.18,2.18,0,0,1,1.42,1,1.08,1.08,0,0,0,.16.53,3.07,3.07,0,0,1-3.49,4.3Z"/><path class="cls-1" d="M137.76,89.76a13,13,0,0,1,1.71-.43,6.08,6.08,0,0,1,1.59.27,4.25,4.25,0,1,1-5.6,3.64,4.13,4.13,0,0,1,2.24-3.38.35.35,0,0,1,.06-.11Z"/><path class="cls-5" d="M153.15,73.67l-1.42-1,3.47-4.38a5.94,5.94,0,0,0,1.4,1.13Z"/><path class="cls-2" d="M137.76,89.75c0,.05,0,.1-.06.11S137.7,89.76,137.76,89.75Z"/><path class="cls-6" d="M139.68,96.58a3,3,0,0,1-3-2.94,3,3,0,1,1,3,2.94Z"/><path class="cls-1" d="M139.52,49c-19.49.19-35.06,16.37-35.06,35.86V95.33a2.47,2.47,0,0,0,2.47,2.47h0a2.47,2.47,0,0,0,2.47-2.47V84.8a30.48,30.48,0,1,1,61-.39V95.33a2.47,2.47,0,0,0,2.47,2.47h0a2.47,2.47,0,0,0,2.47-2.47V84.41A35.45,35.45,0,0,0,139.52,49Z"/></svg>